<svg xmlns="http://www.w3.org/2000/svg" width="24" height="24"><defs><clipPath id="a"><path data-name="Rectangle 7" fill="#f9db82" d="M0 0h24v24H0z"/></clipPath></defs><g data-name="Group 11"><g data-name="Group 10" clip-path="url(#a)" fill="#f9db82"><path data-name="Path 6" d="M11.341-.001h1.313c.216.028.431.06.647.085a12 12 0 0110.516 9.9c.077.437.123.879.183 1.318v1.407a1.224 1.224 0 00-.039.181 11.76 11.76 0 01-.77 3.413A11.994 11.994 0 119.976.188c.452-.076.91-.126 1.365-.188M12 5.583a6.419 6.419 0 106.42 6.431A6.435 6.435 0 0012 5.583m1.989-3.784a9.948 9.948 0 00-3.977 0v2.445a7.824 7.824 0 013.977 0zm-3.981 20.4a9.921 9.921 0 003.983 0V19.76a7.822 7.822 0 01-3.983 0zm9.933-3.5a10.359 10.359 0 001.946-3.5l-2.126-1.226a8.147 8.147 0 01-1.924 3.506l2.1 1.216M6.16 17.482a8.155 8.155 0 01-1.928-3.5l-2.125 1.222a10.359 10.359 0 001.948 3.495l2.1-1.216M19.7 5.044l-2.11 1.221a8.187 8.187 0 012.084 3.416l2.092-1.209A10.4 10.4 0 0019.7 5.044M6.4 6.264L4.293 5.043a10.331 10.331 0 00-2.064 3.428l2.094 1.208A8.167 8.167 0 016.4 6.264"/><path data-name="Path 7" d="M12.602 8.058c.358.057.691.1 1.018.166a.7.7 0 01.584.717.647.647 0 01-.842.645 3.153 3.153 0 00-1.5-.112 1.055 1.055 0 00-.468.239.523.523 0 00.1.829 6.582 6.582 0 00.908.475c.367.17.756.3 1.114.483a1.963 1.963 0 011.162 1.992 2.089 2.089 0 01-1.311 1.844c-.21.1-.444.144-.66.232a.276.276 0 00-.146.18c-.022.153 0 .312-.011.467a.586.586 0 11-1.172-.014c-.01-.169.034-.386-.053-.492s-.3-.054-.464-.084c-.268-.05-.538-.094-.8-.167a.784.784 0 01-.568-.9.639.639 0 01.866-.5 3.688 3.688 0 001.681.2 1.584 1.584 0 00.283-.076.68.68 0 00.5-.562.643.643 0 00-.315-.661c-.285-.171-.6-.3-.9-.442a11.775 11.775 0 01-1.4-.684 1.9 1.9 0 01-.078-3.073 4.7 4.7 0 011.1-.542c.155-.061.214-.115.2-.272a2.3 2.3 0 010-.328.584.584 0 011.166-.043c.015.154 0 .311 0 .481"/></g></g></svg>