<svg xmlns="http://www.w3.org/2000/svg" xmlns:xlink="http://www.w3.org/1999/xlink" width="24" height="24" viewBox="0 0 24 24">
  <defs>
    <clipPath id="clip-path">
      <rect id="Rectangle_7" data-name="Rectangle 7" width="24" height="24" fill="#f9db82"/>
    </clipPath>
  </defs>
  <g id="Group_11" data-name="Group 11" transform="translate(0 0)">
    <g id="Group_10" data-name="Group 10" transform="translate(0 0)" clip-path="url(#clip-path)">
      <path id="Path_6" data-name="Path 6" d="M11.341,0h1.313c.216.028.431.06.647.085a12,12,0,0,1,10.516,9.9c.077.437.123.879.183,1.318v1.407a1.224,1.224,0,0,0-.039.181,11.76,11.76,0,0,1-.77,3.413A11.994,11.994,0,1,1,9.976.189c.452-.076.91-.126,1.365-.188M12,5.584a6.419,6.419,0,1,0,6.42,6.431A6.435,6.435,0,0,0,12,5.584M13.989,1.8a9.948,9.948,0,0,0-3.977,0V4.245a7.824,7.824,0,0,1,3.977,0ZM10.008,22.2a9.921,9.921,0,0,0,3.983,0V19.761a7.822,7.822,0,0,1-3.983,0Zm9.933-3.5a10.359,10.359,0,0,0,1.946-3.5l-2.126-1.226a8.147,8.147,0,0,1-1.924,3.506l2.1,1.216M6.16,17.483a8.155,8.155,0,0,1-1.928-3.5L2.107,15.205A10.359,10.359,0,0,0,4.055,18.7l2.1-1.216M19.7,5.045,17.59,6.266a8.187,8.187,0,0,1,2.084,3.416l2.092-1.209A10.4,10.4,0,0,0,19.7,5.045M6.4,6.265,4.293,5.044A10.331,10.331,0,0,0,2.229,8.472L4.323,9.68A8.167,8.167,0,0,1,6.4,6.265" transform="translate(0 -0.001)" fill="#f9db82"/>
      <path id="Path_7" data-name="Path 7" d="M24.279,16.8c.358.057.691.1,1.018.166a.7.7,0,0,1,.584.717.647.647,0,0,1-.842.645,3.153,3.153,0,0,0-1.5-.112,1.055,1.055,0,0,0-.468.239.523.523,0,0,0,.1.829,6.582,6.582,0,0,0,.908.475c.367.17.756.3,1.114.483a1.963,1.963,0,0,1,1.162,1.992,2.089,2.089,0,0,1-1.311,1.844c-.21.1-.444.144-.66.232a.276.276,0,0,0-.146.18c-.022.153,0,.312-.011.467a.586.586,0,1,1-1.172-.014c-.01-.169.034-.386-.053-.492s-.3-.054-.464-.084c-.268-.05-.538-.094-.8-.167a.784.784,0,0,1-.568-.9.639.639,0,0,1,.866-.5,3.688,3.688,0,0,0,1.681.2A1.584,1.584,0,0,0,24,22.924a.68.68,0,0,0,.5-.562.643.643,0,0,0-.315-.661c-.285-.171-.6-.3-.9-.442a11.775,11.775,0,0,1-1.4-.684,1.9,1.9,0,0,1-.078-3.073,4.7,4.7,0,0,1,1.1-.542c.155-.061.214-.115.2-.272a2.3,2.3,0,0,1,0-.328.584.584,0,0,1,1.166-.043c.015.154,0,.311,0,.481" transform="translate(-11.677 -8.742)" fill="#f9db82"/>
    </g>
  </g>
</svg>
