<svg xmlns="http://www.w3.org/2000/svg" xmlns:xlink="http://www.w3.org/1999/xlink" width="26.058" height="23.993" viewBox="0 0 26.058 23.993">
  <defs>
    <clipPath id="clip-path">
      <rect id="Rectangle_274" data-name="Rectangle 274" width="26.058" height="23.993" fill="#f9db82"/>
    </clipPath>
  </defs>
  <g id="Group_515" data-name="Group 515" clip-path="url(#clip-path)">
    <path id="Path_7256" data-name="Path 7256" d="M41.871,47.93H28.059c0-.3,0-.593,0-.885,0-.412-.158-.7-.6-.754a.732.732,0,0,1-.7-.852c.009-.851,0-1.7.007-2.552a2.06,2.06,0,0,1,.984-1.872c.905-.541,1.856-1,2.784-1.508a.523.523,0,0,1,.692.13,5.379,5.379,0,0,0,7.534-.024.7.7,0,0,1,.615-.126c.974.492,1.943,1,2.875,1.569a1.983,1.983,0,0,1,.916,1.736c.022.907.044,1.817-.014,2.72-.016.255-.279.668-.482.7-.7.123-.853.526-.8,1.132.015.168,0,.339,0,.58" transform="translate(-17.131 -25.242)" fill="#f9db82"/>
    <path id="Path_7257" data-name="Path 7257" d="M13.031,21.787a5.583,5.583,0,0,0-.056,4.938l-3.65,2.046c-.484-.582-1.025-1.23-1.564-1.88-1.03-1.242-1.981-1.238-3.019.018-.83,1.005-1.638,2.03-2.5,3.008-.167.189-.537.2-.89.315a6.823,6.823,0,0,1-.032-.687c.043-.617-.075-1.065-.828-1.161-.186-.023-.448-.429-.461-.67-.05-.942-.033-1.89,0-2.834A1.951,1.951,0,0,1,1,23.18c.927-.541,1.881-1.038,2.842-1.517a.642.642,0,0,1,.569.106,5.341,5.341,0,0,0,7.562,0c.414-.39.666-.078,1.058.022" transform="translate(0 -13.812)" fill="#f9db82"/>
    <path id="Path_7258" data-name="Path 7258" d="M42.251,17.837a4.068,4.068,0,0,1,4.117,4.148,4.1,4.1,0,1,1-4.117-4.148" transform="translate(-24.439 -11.42)" fill="#f9db82"/>
    <path id="Path_7259" data-name="Path 7259" d="M15.572,8.188A4.094,4.094,0,1,1,19.66,4.17a4.085,4.085,0,0,1-4.088,4.018" transform="translate(-7.341 0)" fill="#f9db82"/>
    <path id="Path_7260" data-name="Path 7260" d="M18.592,48.009A8.321,8.321,0,0,1,13,46.423a6.608,6.608,0,0,1-2.283-5.279c-.33,0-.626.005-.921,0-.361-.008-.531-.155-.263-.483.812-1,1.64-1.979,2.459-2.97.218-.263.4-.207.6.03.806.976,1.62,1.947,2.424,2.925.251.305.162.485-.231.5-.3.01-.6,0-.958,0a7.6,7.6,0,0,0,1.01,4.485,5.342,5.342,0,0,0,3.758,2.38" transform="translate(-6.019 -24.018)" fill="#f9db82"/>
  </g>
</svg>
