<svg xmlns="http://www.w3.org/2000/svg" xmlns:xlink="http://www.w3.org/1999/xlink" width="17.497" height="24.008" viewBox="0 0 17.497 24.008">
  <defs>
    <clipPath id="clip-path">
      <rect id="Rectangle_273" data-name="Rectangle 273" width="17.497" height="24.008" fill="#f9db82"/>
    </clipPath>
  </defs>
  <g id="Group_513" data-name="Group 513" transform="translate(0 0)">
    <g id="Group_512" data-name="Group 512" transform="translate(0 0)" clip-path="url(#clip-path)">
      <path id="Path_7255" data-name="Path 7255" d="M16.757,21.972,12.486,19.38,10.6,24.009c-.351-1.064-.684-2.075-1.019-3.086s-.671-2.022-1.029-3.1L6.5,24.008,4.618,19.38.346,21.972l2.6-7.867a2.318,2.318,0,0,1-1.819-3.562A2.321,2.321,0,0,1,1.246,6.5,2.341,2.341,0,0,1,3.384,3.034a2.322,2.322,0,0,1,3.569-1.9A2.3,2.3,0,0,1,9,0a2.253,2.253,0,0,1,1.963,1.183,7.465,7.465,0,0,1,1.254-.2,2.234,2.234,0,0,1,2.214,2.164c.009.2.063.259.264.276a2.294,2.294,0,0,1,1.787,3.317l-.114.22a2.32,2.32,0,0,1-.128,4.05,2.316,2.316,0,0,1-1.968,3.444l2.483,7.519m-5.3-7.827c.107-.049.135-.06.163-.075a6.061,6.061,0,1,0-5.685.034.421.421,0,0,0,.481-.018A3.3,3.3,0,0,1,7.1,11.467c.464-.653,1.013-1.245,1.526-1.863.071-.085.152-.162.246-.261A6.159,6.159,0,0,1,8.2,9.338a3.01,3.01,0,0,1-.637-.144.884.884,0,0,0-.986.222,1.96,1.96,0,0,1-.456.321,1.2,1.2,0,0,1-1.4-.38,1.279,1.279,0,0,1,.192-1.523A11.413,11.413,0,0,0,6.755,6.069a1.356,1.356,0,0,1,.435-.3c.142-.079.313-.11.448-.2.093-.061.213-.189.206-.278-.022-.286.143-.331.358-.367.3-.05.344-.118.337-.424-.006-.244,0-.489,0-.734l.08-.033a5.009,5.009,0,0,1,.564.639A1.491,1.491,0,0,0,10,4.984,3.472,3.472,0,0,1,11.755,6.4a5,5,0,0,1,.574,4.162c-.257.965-.532,1.925-.787,2.891a5.432,5.432,0,0,0-.087.689M6.4,20.831,7.561,17.3a5.831,5.831,0,0,1-.488-.348,3.011,3.011,0,0,1-.379-.412c-.181-.233-.256-.258-.534-.159A2.207,2.207,0,0,1,4.006,16.1c-.148-.107-.281-.235-.438-.369L2.327,19.482l2.823-1.71L6.4,20.831m3.157-3.48L10.7,20.827l1.248-3.056,2.824,1.712-1.19-3.6a2.3,2.3,0,0,1-3,.524l-1.031.944" transform="translate(0 0)" fill="#f9db82"/>
    </g>
  </g>
</svg>
