<svg xmlns="http://www.w3.org/2000/svg" width="17.497" height="24.008"><defs><clipPath id="a"><path data-name="Rectangle 273" fill="#f9db82" d="M0 0h17.497v24.008H0z"/></clipPath></defs><g data-name="Group 513"><g data-name="Group 512" clip-path="url(#a)"><path data-name="Path 7255" d="M16.757 21.972l-4.271-2.592-1.886 4.629c-.351-1.064-.684-2.075-1.019-3.086l-1.029-3.1L6.5 24.008 4.618 19.38.346 21.972l2.6-7.867a2.318 2.318 0 01-1.819-3.562A2.321 2.321 0 011.246 6.5a2.341 2.341 0 012.138-3.466 2.322 2.322 0 013.569-1.9A2.3 2.3 0 019 0a2.253 2.253 0 011.963 1.183 7.465 7.465 0 011.254-.2 2.234 2.234 0 012.214 2.164c.009.2.063.259.264.276a2.294 2.294 0 011.787 3.317l-.114.22a2.32 2.32 0 01-.128 4.05 2.316 2.316 0 01-1.968 3.444l2.483 7.519m-5.3-7.827c.107-.049.135-.06.163-.075a6.061 6.061 0 10-5.685.034.421.421 0 00.481-.018 3.3 3.3 0 01.686-2.62c.464-.653 1.013-1.245 1.526-1.863.071-.085.152-.162.246-.261a6.159 6.159 0 01-.672-.005 3.01 3.01 0 01-.637-.144.884.884 0 00-.986.222 1.96 1.96 0 01-.456.321 1.2 1.2 0 01-1.4-.38 1.279 1.279 0 01.192-1.523 11.413 11.413 0 001.842-1.765 1.356 1.356 0 01.435-.3c.142-.079.313-.11.448-.2.093-.061.213-.189.206-.278-.022-.286.143-.331.358-.367.3-.05.344-.118.337-.424-.006-.244 0-.489 0-.734l.08-.033a5.009 5.009 0 01.564.639 1.491 1.491 0 00.817.612A3.472 3.472 0 0111.755 6.4a5 5 0 01.574 4.162c-.257.965-.532 1.925-.787 2.891a5.432 5.432 0 00-.087.689M6.4 20.831L7.561 17.3a5.831 5.831 0 01-.488-.348 3.011 3.011 0 01-.379-.412c-.181-.233-.256-.258-.534-.159a2.207 2.207 0 01-2.154-.281c-.148-.107-.281-.235-.438-.369l-1.241 3.751 2.823-1.71 1.25 3.059m3.157-3.48l1.143 3.476 1.248-3.056 2.824 1.712-1.19-3.6a2.3 2.3 0 01-3 .524l-1.031.944" fill="#f9db82"/></g></g></svg>