<svg xmlns="http://www.w3.org/2000/svg" xmlns:xlink="http://www.w3.org/1999/xlink" width="11.861" height="19.998" viewBox="0 0 11.861 19.998">
  <defs>
    <clipPath id="clip-path">
      <rect id="Rectangle_4" data-name="Rectangle 4" width="11.861" height="19.998" fill="#ffbe00"/>
    </clipPath>
  </defs>
  <g id="Group_4" data-name="Group 4" transform="translate(0 0)">
    <g id="Group_3" data-name="Group 3" transform="translate(0 0)" clip-path="url(#clip-path)">
      <path id="Path_1" data-name="Path 1" d="M11.861,1.523V18.475a.146.146,0,0,0-.031.048A1.78,1.78,0,0,1,9.955,20H1.9A1.788,1.788,0,0,1,0,18.09V10.127Q0,5.97,0,1.813A1.781,1.781,0,0,1,1.433.035.679.679,0,0,0,1.521,0h8.819a.591.591,0,0,0,.087.035,1.772,1.772,0,0,1,1.395,1.384,1.077,1.077,0,0,0,.041.1M10.577,9.488V3.926c0-.345-.077-.419-.426-.419H1.707c-.349,0-.423.074-.423.421V15.055c0,.344.075.418.425.418h8.444c.349,0,.425-.074.425-.421V9.488M5.936,18.595A1.152,1.152,0,1,0,4.778,17.45a1.148,1.148,0,0,0,1.157,1.145M4.064,2.06H7.8V1.449H4.064Z" transform="translate(0 -0.001)" fill="#ffbe00"/>
    </g>
  </g>
</svg>
