<svg xmlns="http://www.w3.org/2000/svg" width="11.861" height="19.998"><defs><clipPath id="a"><path data-name="Rectangle 4" fill="#ffbe00" d="M0 0h11.861v19.998H0z"/></clipPath></defs><g data-name="Group 4"><g data-name="Group 3" clip-path="url(#a)"><path data-name="Path 1" d="M11.861 1.522v16.952a.146.146 0 00-.031.048 1.78 1.78 0 01-1.875 1.477H1.9a1.788 1.788 0 01-1.9-1.91V1.812A1.781 1.781 0 011.433.034a.679.679 0 00.088-.035h8.819a.591.591 0 00.087.035 1.772 1.772 0 011.395 1.384 1.077 1.077 0 00.041.1m-1.286 7.969V3.925c0-.345-.077-.419-.426-.419H1.707c-.349 0-.423.074-.423.421v11.127c0 .344.075.418.425.418h8.444c.349 0 .425-.074.425-.421V9.487m-4.642 9.107a1.152 1.152 0 10-1.158-1.145 1.148 1.148 0 001.157 1.145M4.064 2.059H7.8v-.611H4.064z" fill="#ffbe00"/></g></g></svg>