<svg xmlns="http://www.w3.org/2000/svg" xmlns:xlink="http://www.w3.org/1999/xlink" width="24.003" height="15.472" viewBox="0 0 24.003 15.472">
  <defs>
    <clipPath id="clip-path">
      <rect id="Rectangle_50" data-name="Rectangle 50" width="24.003" height="15.472" fill="#f9db82"/>
    </clipPath>
  </defs>
  <g id="Group_45" data-name="Group 45" transform="translate(0 0)">
    <g id="Group_45-2" data-name="Group 45" transform="translate(0 0)" clip-path="url(#clip-path)">
      <path id="Path_14" data-name="Path 14" d="M38.23,18.836A3.361,3.361,0,1,1,41.551,22.2a3.365,3.365,0,0,1-3.321-3.367m2.24,0c0,.44,0,.88,0,1.321a.266.266,0,0,0,.415.247q1.134-.652,2.267-1.308a.272.272,0,0,0,0-.51q-1.123-.652-2.249-1.3a.268.268,0,0,0-.431.25c0,.433,0,.866,0,1.3" transform="translate(-29.589 -11.981)" fill="#f9db82"/>
      <path id="Path_15" data-name="Path 15" d="M94.789,6.995a10.816,10.816,0,0,1-1.977,6.161c-.073.106-.15.209-.228.311a.625.625,0,1,1-1-.754,9.692,9.692,0,0,0,1.943-6.2,9.584,9.584,0,0,0-1.483-4.835c-.144-.23-.3-.452-.461-.672a.632.632,0,0,1,.119-.881.619.619,0,0,1,.879.125,10.932,10.932,0,0,1,1.809,3.675,11.443,11.443,0,0,1,.4,3.066" transform="translate(-70.786 0)" fill="#f9db82"/>
      <path id="Path_16" data-name="Path 16" d="M0,7.094A11.34,11.34,0,0,1,1.129,2,10.955,10.955,0,0,1,2.188.279a.626.626,0,1,1,1.007.741A9.693,9.693,0,0,0,1.46,4.85a9.8,9.8,0,0,0-.166,2.9,9.623,9.623,0,0,0,.97,3.439A9.841,9.841,0,0,0,3.2,12.707a.625.625,0,0,1-.123.895.633.633,0,0,1-.884-.152,10.929,10.929,0,0,1-2-4.536A10.271,10.271,0,0,1,0,7.094" transform="translate(0 -0.002)" fill="#f9db82"/>
      <path id="Path_17" data-name="Path 17" d="M83.482,14a7.506,7.506,0,0,1-1.459,4.565.63.63,0,0,1-.952.144.62.62,0,0,1-.092-.834A6.226,6.226,0,0,0,81.2,10.69c-.066-.1-.139-.2-.209-.3a.63.63,0,0,1,.122-.881.621.621,0,0,1,.884.141,10.344,10.344,0,0,1,.6.94,6.983,6.983,0,0,1,.84,2.706c.027.274.039.549.05.7" transform="translate(-62.582 -7.264)" fill="#f9db82"/>
      <path id="Path_18" data-name="Path 18" d="M13.736,14a7.4,7.4,0,0,1,1.483-4.344.625.625,0,1,1,1.008.739,6.222,6.222,0,0,0-.206,7.164c.066.1.139.2.209.3a.626.626,0,1,1-1.006.745,7.375,7.375,0,0,1-1.378-3.191A7.467,7.467,0,0,1,13.736,14" transform="translate(-10.63 -7.268)" fill="#f9db82"/>
      <path id="Path_19" data-name="Path 19" d="M69.569,53.042v.733h-.13c-.519,0-1.038,0-1.557,0-.088,0-.123.023-.118.114a3.056,3.056,0,0,1,0,.344c0,.088.031.107.112.107.476,0,.952,0,1.428,0h.134v.7h-.124c-.476,0-.952,0-1.428,0-.092,0-.127.021-.122.119.008.153.007.308,0,.462,0,.089.023.117.114.116.54,0,1.081,0,1.622,0h.123v.779c-.037,0-.075.006-.113.006q-1.348,0-2.7,0c-.081,0-.121-.012-.121-.109,0-1.1,0-2.2,0-3.3,0-.021,0-.042.007-.071Z" transform="translate(-51.618 -41.053)" fill="#f9db82"/>
      <path id="Path_20" data-name="Path 20" d="M28.558,17.576A.565.565,0,0,1,29,17.9a.6.6,0,0,1-.049.668,3.091,3.091,0,0,0-.467.9,3.122,3.122,0,0,0,.441,2.847.652.652,0,0,1,.12.605.624.624,0,0,1-1.1.182,4.185,4.185,0,0,1-.754-1.621,4.392,4.392,0,0,1,.678-3.558.715.715,0,0,1,.683-.348" transform="translate(-20.957 -13.603)" fill="#f9db82"/>
      <path id="Path_21" data-name="Path 21" d="M72.273,20.286a4.551,4.551,0,0,1-.876,2.8.624.624,0,1,1-1.01-.732,3.2,3.2,0,0,0,.577-1.314,3.12,3.12,0,0,0-.557-2.46.639.639,0,0,1,0-.794.629.629,0,0,1,.987.026,4.116,4.116,0,0,1,.759,1.654c.067.324.1.656.119.822" transform="translate(-54.384 -13.589)" fill="#f9db82"/>
      <path id="Path_22" data-name="Path 22" d="M48.23,52.995h.54c.15,0,.3.006.451,0a.14.14,0,0,1,.165.12c.23.748.464,1.495.7,2.242.012.037.026.073.049.138.023-.064.038-.1.05-.139q.348-1.127.693-2.254a.124.124,0,0,1,.142-.106c.3,0,.594,0,.891,0,.024,0,.048,0,.087.008l-.227.608q-.511,1.378-1.02,2.756a.142.142,0,0,1-.159.115c-.318-.007-.637,0-.955,0a.113.113,0,0,1-.128-.082q-.622-1.657-1.249-3.311c-.009-.023-.015-.047-.029-.092" transform="translate(-37.329 -41.014)" fill="#f9db82"/>
      <path id="Path_23" data-name="Path 23" d="M27.575,53v.145c0,.78,0,1.561,0,2.341,0,.107.027.141.137.139.469-.006.938,0,1.407,0h.141c0,.19,0,.368,0,.545,0,.1.024.228-.028.286s-.181.021-.277.021c-.773,0-1.547,0-2.32,0-.1,0-.132-.03-.132-.133q.005-1.616,0-3.233c0-.093.022-.125.119-.123.276.006.551,0,.827,0,.039,0,.077,0,.128.007" transform="translate(-20.511 -41.016)" fill="#f9db82"/>
      <rect id="Rectangle_49" data-name="Rectangle 49" width="1.056" height="3.472" transform="translate(9.346 11.987)" fill="#f9db82"/>
    </g>
  </g>
</svg>
