<svg xmlns="http://www.w3.org/2000/svg" width="24.003" height="15.472"><defs><clipPath id="a"><path data-name="Rectangle 50" fill="#f9db82" d="M0 0h24.003v15.472H0z"/></clipPath></defs><g data-name="Group 45" clip-path="url(#a)" fill="#f9db82"><path data-name="Path 14" d="M8.641 6.855a3.361 3.361 0 113.321 3.364 3.365 3.365 0 01-3.321-3.367m2.24 0v1.321a.266.266 0 00.415.247q1.134-.652 2.267-1.308a.272.272 0 000-.51q-1.123-.652-2.249-1.3a.268.268 0 00-.431.25v1.3"/><path data-name="Path 15" d="M24.003 6.995a10.816 10.816 0 01-1.977 6.161 7.75 7.75 0 01-.228.311.626.626 0 11-1-.754 9.692 9.692 0 001.943-6.2 9.584 9.584 0 00-1.483-4.835c-.144-.23-.3-.452-.461-.672a.632.632 0 01.119-.881.619.619 0 01.879.125 10.932 10.932 0 011.809 3.675 11.443 11.443 0 01.4 3.066"/><path data-name="Path 16" d="M0 7.092a11.34 11.34 0 011.129-5.094A10.955 10.955 0 012.188.277a.626.626 0 111.007.741 9.693 9.693 0 00-1.735 3.83 9.8 9.8 0 00-.166 2.9 9.623 9.623 0 00.97 3.439 9.841 9.841 0 00.936 1.518.625.625 0 01-.123.895.633.633 0 01-.884-.152 10.929 10.929 0 01-2-4.536A10.271 10.271 0 010 7.092"/><path data-name="Path 17" d="M20.9 6.736a7.506 7.506 0 01-1.459 4.565.63.63 0 01-.952.144.62.62 0 01-.092-.834 6.226 6.226 0 00.221-7.185c-.066-.1-.139-.2-.209-.3a.63.63 0 01.122-.881.621.621 0 01.884.141 10.344 10.344 0 01.6.94 6.983 6.983 0 01.84 2.706c.027.274.039.549.05.7"/><path data-name="Path 18" d="M3.106 6.732a7.4 7.4 0 011.483-4.344.625.625 0 111.008.739 6.222 6.222 0 00-.206 7.164c.066.1.139.2.209.3a.626.626 0 11-1.006.745 7.375 7.375 0 01-1.378-3.191 7.467 7.467 0 01-.11-1.413"/><path data-name="Path 19" d="M17.951 11.989v.733h-1.687c-.088 0-.123.023-.118.114a3.056 3.056 0 010 .344c0 .088.031.107.112.107h1.562v.7h-1.552c-.092 0-.127.021-.122.119.008.153.007.308 0 .462 0 .089.023.117.114.116h1.745v.779c-.037 0-.075.006-.113.006h-2.7c-.081 0-.121-.012-.121-.109v-3.3c0-.021 0-.042.007-.071z"/><path data-name="Path 20" d="M7.601 3.973a.565.565 0 01.442.324.6.6 0 01-.049.668 3.091 3.091 0 00-.467.9 3.122 3.122 0 00.441 2.847.652.652 0 01.12.605.624.624 0 01-1.1.182 4.185 4.185 0 01-.754-1.621 4.392 4.392 0 01.678-3.558.715.715 0 01.683-.348"/><path data-name="Path 21" d="M17.889 6.697a4.551 4.551 0 01-.876 2.8.624.624 0 11-1.01-.732 3.2 3.2 0 00.577-1.314 3.12 3.12 0 00-.557-2.46.639.639 0 010-.794.629.629 0 01.987.026 4.116 4.116 0 01.759 1.654c.067.324.1.656.119.822"/><path data-name="Path 22" d="M10.901 11.981h.54c.15 0 .3.006.451 0a.14.14 0 01.165.12c.23.748.464 1.495.7 2.242.012.037.026.073.049.138.023-.064.038-.1.05-.139q.348-1.127.693-2.254a.124.124 0 01.142-.106h.891a.38.38 0 01.087.008l-.227.608-1.02 2.756a.142.142 0 01-.159.115c-.318-.007-.637 0-.955 0a.113.113 0 01-.128-.082q-.622-1.657-1.249-3.311c-.009-.023-.015-.047-.029-.092"/><path data-name="Path 23" d="M7.064 11.984v2.486c0 .107.027.141.137.139.469-.006.938 0 1.407 0h.141v.545c0 .1.024.228-.028.286s-.181.021-.277.021h-2.32c-.1 0-.132-.03-.132-.133q.005-1.616 0-3.233c0-.093.022-.125.119-.123.276.006.551 0 .827 0 .039 0 .077 0 .128.007"/><path data-name="Rectangle 49" d="M9.346 11.987h1.056v3.472H9.346z"/></g></svg>