<svg xmlns="http://www.w3.org/2000/svg" width="26.058" height="23.993"><defs><clipPath id="a"><path data-name="Rectangle 274" fill="#f9db82" d="M0 0h26.058v23.993H0z"/></clipPath></defs><g data-name="Group 515" clip-path="url(#a)" fill="#f9db82"><path data-name="Path 7256" d="M24.74 22.688H10.928v-.885c0-.412-.158-.7-.6-.754a.732.732 0 01-.7-.852c.009-.851 0-1.7.007-2.552a2.06 2.06 0 01.984-1.872c.905-.541 1.856-1 2.784-1.508a.523.523 0 01.692.13 5.379 5.379 0 007.534-.024.7.7 0 01.615-.126c.974.492 1.943 1 2.875 1.569a1.983 1.983 0 01.916 1.736c.022.907.044 1.817-.014 2.72-.016.255-.279.668-.482.7-.7.123-.853.526-.8 1.132.015.168 0 .339 0 .58"/><path data-name="Path 7257" d="M13.031 7.975a5.583 5.583 0 00-.056 4.938l-3.65 2.046c-.484-.582-1.025-1.23-1.564-1.88-1.03-1.242-1.981-1.238-3.019.018-.83 1.005-1.638 2.03-2.5 3.008-.167.189-.537.2-.89.315a6.823 6.823 0 01-.032-.687c.043-.617-.075-1.065-.828-1.161-.186-.023-.448-.429-.461-.67a32.27 32.27 0 010-2.834A1.951 1.951 0 011 9.368a48.94 48.94 0 012.842-1.517.642.642 0 01.569.106 5.341 5.341 0 007.562 0c.414-.39.666-.078 1.058.022"/><path data-name="Path 7258" d="M17.812 6.417a4.068 4.068 0 014.117 4.148 4.1 4.1 0 11-4.117-4.148"/><path data-name="Path 7259" d="M8.231 8.188a4.094 4.094 0 114.088-4.018 4.085 4.085 0 01-4.088 4.018"/><path data-name="Path 7260" d="M12.573 23.991a8.321 8.321 0 01-5.592-1.586 6.608 6.608 0 01-2.283-5.279c-.33 0-.626.005-.921 0-.361-.008-.531-.155-.263-.483.812-1 1.64-1.979 2.459-2.97.218-.263.4-.207.6.03.806.976 1.62 1.947 2.424 2.925.251.305.162.485-.231.5-.3.01-.6 0-.958 0a7.6 7.6 0 001.01 4.485 5.342 5.342 0 003.758 2.38"/></g></svg>