<svg xmlns="http://www.w3.org/2000/svg" xmlns:xlink="http://www.w3.org/1999/xlink" width="21.042" height="24.012" viewBox="0 0 21.042 24.012">
  <defs>
    <clipPath id="clip-path">
      <rect id="Rectangle_6" data-name="Rectangle 6" width="21.042" height="24.012" fill="#f9db82"/>
    </clipPath>
  </defs>
  <g id="Group_8" data-name="Group 8" transform="translate(0 0)">
    <g id="Group_7" data-name="Group 7" transform="translate(0 0)" clip-path="url(#clip-path)">
      <path id="Path_4" data-name="Path 4" d="M17,7.431l-1.224-.178-.547-1.109c-.19-.383-.5-.383-.685,0L14,7.253l-1.224.178c-.423.062-.517.354-.211.652l.886.862-.209,1.22c-.073.421.176.6.554.4l1.095-.575,1.094.575c.379.2.627.019.554-.4l-.208-1.22.885-.862c.306-.3.212-.59-.211-.652" transform="translate(-4.365 -2.064)" fill="#f9db82"/>
      <path id="Path_5" data-name="Path 5" d="M20.416,1.786H16.752V0H4.291V1.786H.627A.627.627,0,0,0,0,2.413V5.772A3.482,3.482,0,0,0,3.482,9.254H4.741a7.982,7.982,0,0,0,2.253,2.9l.275.221a3.536,3.536,0,0,1,1.31,2.748v1.447h3.885V14.915A3.107,3.107,0,0,1,13.615,12.5l.433-.35a7.981,7.981,0,0,0,2.253-2.9H17.56a3.482,3.482,0,0,0,3.482-3.481V2.413a.627.627,0,0,0-.627-.627M3.482,7.635A1.863,1.863,0,0,1,1.619,5.773V3.4H4.291V7.268c0,.123.019.245.03.367Zm9.169,1.926a4,4,0,0,1-5.5-5.5A3.088,3.088,0,0,1,8.394,2.813a4.005,4.005,0,0,1,5.5,5.5,3.088,3.088,0,0,1-1.246,1.247m6.773-3.79A1.863,1.863,0,0,1,17.56,7.635h-.839c.011-.122.03-.244.03-.367V3.4h2.672ZM17,22.07H15.7V19.986a1.8,1.8,0,0,0-1.8-1.8H7.143a1.8,1.8,0,0,0-1.8,1.8V22.07H4.047v1.942H17Zm-3.6-.647H7.644V20.128H13.4Z" transform="translate(0 0)" fill="#f9db82"/>
    </g>
  </g>
</svg>
